<?xml version="1.0" encoding="utf-8"?>
<svg version="1.1" id="Layer_1" xmlns="http://www.w3.org/2000/svg" xmlns:xlink="http://www.w3.org/1999/xlink" x="0px" y="0px"
	 viewBox="0 0 151 170.1" xml:space="preserve">
	<style>
	path {
        fill: #722b8c;
    }​
	</style>
    <g style="display:none" id="kub1">
        <path d="M57.3,53.7c-2,0-3.7,1.6-3.7,3.7v20.9c0,2,1.6,3.7,3.7,3.7s3.7-1.6,3.7-3.7V57.3C61,55.3,59.4,53.7,57.3,53.7z
		"/>
	<path d="M57.3,88.2c-2,0-3.7,1.6-3.7,3.7v20.9c0,2,1.6,3.7,3.7,3.7s3.7-1.6,3.7-3.7V91.8C61,89.8,59.4,88.2,57.3,88.2z
		"/>
	<path d="M75.6,81.9c1,0,2-0.4,2.8-1.3l18.3-20.9c1.3-1.5,1.2-3.9-0.3-5.2c-1.5-1.3-3.9-1.2-5.2,0.3L72.9,75.8
		c-1.3,1.5-1.2,3.9,0.3,5.2C73.9,81.6,74.8,81.9,75.6,81.9z"/>
	<path d="M78.4,89.4c-1.3-1.5-3.7-1.7-5.2-0.3c-1.5,1.3-1.7,3.7-0.3,5.2l18.3,20.9c0.7,0.8,1.7,1.3,2.8,1.3
		c0.9,0,1.7-0.3,2.4-0.9c1.5-1.3,1.7-3.7,0.3-5.2L78.4,89.4z"/>
    </g>
    <g style="display:none" id="kub2">
        <path d="M58,73C58,73,58,73,58,73c2,0,3.7-1.6,3.7-3.7l0.1-12c0-2-1.6-3.7-3.7-3.7c0,0,0,0,0,0c-2,0-3.7,1.6-3.7,3.7
		l-0.1,12C54.3,71.3,55.9,73,58,73z"/>
	<path d="M96.9,109.8L64.2,85l32.7-24.8c1.6-1.2,1.9-3.5,0.7-5.2c-1.2-1.6-3.5-1.9-5.2-0.7L55.8,82.1
		c-0.9,0.7-1.5,1.8-1.5,2.9l0,27.7c0,2,1.6,3.7,3.7,3.7c0,0,0,0,0,0c2,0,3.7-1.6,3.7-3.7l0-20.3l30.7,23.3c0.7,0.5,1.4,0.7,2.2,0.7
		c1.1,0,2.2-0.5,2.9-1.5C98.8,113.3,98.5,111,96.9,109.8z"/>
        <path d="M61,67.3v-10c0-2-1.6-3.7-3.7-3.7c-2,0-3.7,1.6-3.7,3.7v55.4c0,2,1.6,3.7,3.7,3.7c2,0,3.7-1.6,3.7-3.7V75.3         l11-4.7l18.5,43.5c0.6,1.4,2,2.2,3.4,2.2c0.5,0,1-0.1,1.4-0.3c1.9-0.8,2.7-3,1.9-4.8L78.8,67.8l16.6-7c1.9-0.8,2.7-3,2-4.8         c-0.8-1.9-3-2.7-4.8-2L61,67.3z" />
        <path d="M290.3,78.7l34.6-18.1c1.8-0.9,2.5-3.2,1.6-5c-0.9-1.8-3.2-2.5-5-1.6l-31.2,16.3l0-13.1c0-2-1.6-3.7-3.7-3.7         c0,0,0,0,0,0c-2,0-3.7,1.6-3.7,3.7l-0.1,55.4c0,2,1.6,3.7,3.7,3.7c0,0,0,0,0,0c2,0,3.7-1.6,3.7-3.7l0-13.1l31.2,16.3         c0.5,0.3,1.1,0.4,1.7,0.4c1.3,0,2.6-0.7,3.3-2c0.9-1.8,0.2-4-1.6-5l-34.6-18.1L290.3,78.7z" />
    </g>
    <g style="display:none" id="kub3">
        <path d="M56.1,83c0.6,0.3,1.2,0.5,1.8,0.5c0.7,0,1.3-0.2,1.9-0.5l36.6-22.5c1.7-1.1,2.3-3.3,1.2-5.1
		c-1.1-1.7-3.3-2.3-5.1-1.2l-31,19l0-15.9c0-2-1.6-3.7-3.7-3.7c0,0,0,0,0,0c-2,0-3.7,1.6-3.7,3.7l-0.1,22.5
		C54.2,81.2,54.9,82.4,56.1,83z"/>
	<path d="M96.5,109.6L59.9,87.1c-1.1-0.7-2.6-0.7-3.7-0.1s-1.9,1.9-1.9,3.2l0,22.5c0,2,1.6,3.7,3.7,3.7c0,0,0,0,0,0
		c2,0,3.7-1.6,3.7-3.7l0-15.9l31,19.1c0.6,0.4,1.3,0.5,1.9,0.5c1.2,0,2.4-0.6,3.1-1.8C98.7,112.9,98.2,110.7,96.5,109.6z"/>
    </g>
    <g style="display:none" id="kub4">
        <path d="M97.7,110.7L79.9,83.8l17.7-24.3c1.2-1.6,0.8-3.9-0.8-5.1c-1.6-1.2-3.9-0.8-5.1,0.8l-16.1,22L61.2,55.3
	c-0.9-1.4-2.6-2-4.1-1.5c-1.6,0.5-2.6,1.9-2.6,3.5l-0.1,55.4c0,2,1.6,3.7,3.7,3.7c0,0,0,0,0,0c2,0,3.7-1.6,3.7-3.7l0.1-43.2
	l29.8,45.2c1.1,1.7,3.4,2.2,5.1,1C98.4,114.7,98.8,112.4,97.7,110.7z"/>   
    </g>
</svg>